<svg width="375" height="763" viewBox="0 0 375 763" fill="none" xmlns="http://www.w3.org/2000/svg">
<g opacity="0.6">
<path opacity="0.75" d="M385.685 28.0905C339.404 13.8733 293.64 20.5323 270.527 45.1997C260.222 56.2088 245.973 79.9284 254.729 97.2077C260.711 109.019 272.159 108.508 282.165 126.177C285.211 131.596 290.486 140.928 288.827 152.181C287.25 162.801 281.214 163.336 275.531 177.431C272.975 183.774 267.482 197.335 273.029 210.119C275.612 216.048 279.011 218.26 288.827 227.203C298.508 236.025 311.424 248.614 316.264 254.69C339.975 284.558 312.539 337.757 311.288 340.139C297.583 365.948 284.885 365.438 280.534 386.946C275.694 410.811 287.169 432.027 291.329 439.707C293.613 443.912 302.233 459.028 320.424 473.148C345.794 492.833 373.802 498.18 387.371 499.881" stroke="#1D3B5F" stroke-linecap="round" stroke-linejoin="round"/>
<path d="M379.92 72.1514C376.603 71.8598 345.958 69.5753 327.005 89.7467C318.983 98.2769 308.786 115.362 315.312 128.242C319.745 136.991 328.228 136.602 335.625 149.677C337.882 153.687 341.797 160.589 340.546 168.925C339.377 176.799 334.918 177.188 330.703 187.614C328.8 192.305 324.748 202.342 328.854 211.82C330.757 216.194 333.286 217.847 340.546 224.457C347.725 230.995 357.269 240.303 360.859 244.799C378.425 266.914 358.112 306.26 357.161 308.035C347.018 327.137 337.61 326.772 334.401 342.666C330.812 360.334 339.323 376.009 342.395 381.696C344.272 385.196 350.635 396.205 363.931 406.437C372.932 413.363 381.769 417.349 387.915 419.633" stroke="#1D3B5F" stroke-linecap="round" stroke-linejoin="round"/>
</g>
<g opacity="0.6">
<path opacity="0.75" d="M-3.70529 750.375C42.4606 762.236 88.1112 756.681 111.167 736.1C121.447 726.915 135.66 707.126 126.926 692.71C120.959 682.856 109.54 683.281 99.5577 668.541C96.5198 664.019 91.2576 656.233 92.9122 646.845C94.4854 637.985 100.507 637.539 106.176 625.779C108.726 620.487 114.205 609.173 108.672 598.507C106.095 593.56 102.704 591.715 92.9122 584.253C83.2559 576.893 70.3718 566.39 65.5436 561.321C41.891 536.402 69.2596 492.018 70.5074 490.031C84.1781 468.498 96.8453 468.924 101.185 450.979C106.013 431.068 94.5668 413.367 90.4168 406.96C88.1383 403.452 79.5398 390.841 61.3935 379.06C36.0864 362.637 8.14814 358.176 -5.38698 356.757" stroke="#1D3B5F" stroke-linecap="round" stroke-linejoin="round"/>
<path d="M-4.22179 701.9C-1.40044 702.144 24.6623 704.052 40.781 687.204C47.6031 680.079 56.2753 665.809 50.7251 655.05C46.9556 647.743 39.7404 648.068 33.4501 637.147C31.5307 633.798 28.2006 628.033 29.2644 621.07C30.2588 614.493 34.0514 614.168 37.6359 605.46C39.2547 601.543 42.7005 593.159 39.2085 585.243C37.5897 581.589 35.439 580.208 29.2644 574.687C23.1592 569.227 15.042 561.452 11.9894 557.697C-2.94985 539.225 14.3251 506.361 15.1345 504.879C23.7604 488.924 31.762 489.229 34.4908 475.953C37.5434 461.196 30.305 448.103 27.6918 443.353C26.0962 440.43 20.6847 431.235 9.37621 422.689C1.72157 416.904 -5.79431 413.575 -11.0207 411.667" stroke="#1D3B5F" stroke-linecap="round" stroke-linejoin="round"/>
</g>
</svg>
