<svg width="36" height="39" viewBox="0 0 36 39" fill="none" xmlns="http://www.w3.org/2000/svg">
<path d="M1.34782 32.1315C1.45406 32.8392 1.76773 34.2176 2.85544 35.406C4.46299 37.1618 6.65865 37.2983 8.19158 37.3939C9.78394 37.4934 11.5167 37.6017 12.5994 36.458C13.4265 35.5845 13.4936 34.4025 13.5277 33.0662C13.5884 30.7098 12.846 29.8899 13.0635 27.3358C13.1445 26.3897 13.185 25.9166 13.4114 25.5813C14.5054 23.9657 17.1273 25.3492 21.1835 24.6454C21.5186 24.5867 22.299 24.4388 22.8074 24.8787C23.3235 25.325 23.2944 26.1474 23.2716 26.6333C23.0971 30.2877 22.8757 32.5651 23.2716 34.7034C23.4297 35.5603 23.56 36.0525 23.9673 36.5753C25.4205 38.4369 28.5964 37.9855 29.3034 37.8619C29.784 37.7777 32.4628 37.3072 33.9439 35.0553C34.8217 33.719 34.7129 32.6161 34.7559 29.441C34.833 23.7553 35.2643 21.5277 34.7559 16.8098C34.5674 15.0566 34.1096 13.8465 33.3634 12.5994C32.607 11.3371 31.9594 10.9086 29.8827 9.09032C27.5327 7.0323 26.3843 5.84517 22.8062 2.89202C21.4301 1.7559 20.6421 1.1413 19.4419 1.02016C17.9127 0.867151 16.6745 1.61309 15.6133 2.30675C12.5462 4.31122 10.7249 6.02624 8.53686 7.92105C4.32259 11.573 3.00848 12.1914 1.92835 14.5886C1.32126 15.9351 1.09612 17.1605 1 17.9804C1.11636 22.697 1.23146 27.4149 1.34782 32.1315Z" fill="#F4F4F4" stroke="#303030" stroke-miterlimit="10"/>
</svg>
