<svg width="42" height="41" viewBox="0 0 42 41" fill="none" xmlns="http://www.w3.org/2000/svg">
<g clip-path="url(#clip0_66_83)">
<path d="M0.377945 5.36291C1.20632 9.28961 1.90021 14.1724 1.94997 19.7935C2.00779 26.1986 1.21573 31.6987 0.285156 35.9817C3.14411 35.9777 6.6768 36.2063 10.6452 36.9997C14.6297 37.7958 17.9916 38.9469 20.6354 40.0523C22.8529 38.9577 25.8463 37.7555 29.5162 36.9997C34.473 35.9777 38.7238 36.1687 41.6338 36.5371C40.87 32.2312 40.2729 27.0512 40.246 21.1813C40.2178 14.9551 40.8364 9.48594 41.6338 4.9931C27.881 5.11682 14.1281 5.23919 0.3766 5.36291H0.377945Z" fill="url(#paint0_linear_66_83)" stroke="#303030" stroke-width="0.571523" stroke-linecap="round" stroke-linejoin="round"/>
<path d="M20.6365 36.5465C20.5908 36.5465 20.5437 36.5358 20.502 36.5129C18.1056 35.2394 15.5479 34.3156 12.9001 33.7656C10.9959 33.3702 9.04197 33.1698 7.09207 33.1698C5.88447 33.1698 4.66477 33.2478 3.46659 33.3998C3.45449 33.4011 3.44239 33.4025 3.43029 33.4025C3.35229 33.4025 3.27833 33.3716 3.22454 33.3151C3.16133 33.2492 3.13444 33.1577 3.14923 33.069C4.05425 27.7505 4.55182 22.319 4.62578 16.9238C4.69974 11.573 4.35817 6.17245 3.61048 0.871406C3.59973 0.794755 3.6199 0.716759 3.66831 0.6549C3.71672 0.594386 3.78665 0.554043 3.86464 0.547319C4.81001 0.450497 5.76882 0.400741 6.71284 0.400741C9.72107 0.400741 12.6634 0.890233 15.4578 1.85711C17.4642 2.55101 19.3926 3.491 21.1919 4.65287C23.3744 3.22608 25.7439 2.12876 28.2344 1.39048C30.7034 0.658934 33.2678 0.287781 35.8578 0.287781C36.5248 0.287781 37.1999 0.313331 37.8655 0.363087C37.9435 0.368466 38.0162 0.40612 38.0659 0.466634C38.1157 0.527148 38.1385 0.605144 38.1278 0.68314C37.5025 5.68833 37.1609 10.7809 37.1125 15.8211C37.0587 21.4435 37.3693 27.1278 38.035 32.7126C38.0457 32.8 38.0148 32.8861 37.9529 32.9479C37.8992 33.0017 37.8265 33.0313 37.7512 33.0313C37.7405 33.0313 37.7297 33.0313 37.7176 33.03C36.6593 32.9063 35.5821 32.8431 34.5144 32.8431C32.6721 32.8431 30.823 33.0286 29.0197 33.3958C26.1191 33.9861 23.3462 35.0337 20.779 36.5089C20.7346 36.5344 20.6862 36.5465 20.6365 36.5465Z" fill="white"/>
<path d="M35.8566 0.571523C36.5949 0.571523 37.2605 0.602452 37.8428 0.645485C37.2753 5.1827 36.8786 10.2672 36.8248 15.8171C36.7657 22.0648 37.1543 27.7478 37.75 32.7462C36.8477 32.64 35.7557 32.558 34.5132 32.558C32.8914 32.558 31.0114 32.6992 28.962 33.116C25.2895 33.8624 22.4668 35.2098 20.6366 36.2614C18.8158 35.2946 16.2218 34.1636 12.958 33.4859C10.7997 33.038 8.81617 32.8834 7.09219 32.8834C5.68154 32.8834 4.44436 32.9869 3.43041 33.116C4.21575 28.5049 4.82627 23.0546 4.91099 16.9278C4.99437 10.8549 4.54118 5.43283 3.89301 0.832406C4.68776 0.750376 5.63851 0.687172 6.71163 0.687172C9.10261 0.687172 12.1068 1.00185 15.3638 2.12741C17.7588 2.95578 19.7033 4.01949 21.192 4.99444C22.8272 3.90922 25.2182 2.58194 28.3152 1.66481C31.1997 0.809545 33.8045 0.572868 35.8566 0.572868M35.8566 0C33.2397 0 30.6483 0.375188 28.1525 1.11481C25.6943 1.84367 23.353 2.91813 21.1907 4.3113C19.4169 3.18305 17.5221 2.26592 15.5507 1.58547C12.7267 0.609176 9.75213 0.114305 6.71163 0.114305C5.75819 0.114305 4.78996 0.164061 3.83384 0.262228C3.67919 0.278365 3.53799 0.356361 3.44252 0.478734C3.34704 0.601107 3.30535 0.7571 3.32687 0.910402C4.07186 6.19531 4.41209 11.5824 4.33947 16.9184C4.26551 22.2975 3.77064 27.7155 2.86696 33.0192C2.83603 33.1981 2.89251 33.3796 3.01757 33.5114C3.1265 33.6244 3.27577 33.6876 3.43041 33.6876C3.45462 33.6876 3.47882 33.6862 3.50303 33.6835C4.68911 33.5329 5.8967 33.4563 7.09219 33.4563C9.02327 33.4563 10.957 33.6553 12.8424 34.0466C15.4647 34.5912 17.9968 35.507 20.369 36.7671C20.4524 36.8114 20.5452 36.8343 20.638 36.8343C20.7361 36.8343 20.8343 36.8088 20.923 36.7577C23.4633 35.2972 26.2066 34.2604 29.0777 33.6768C30.8622 33.3137 32.6924 33.1295 34.5159 33.1295C35.5715 33.1295 36.6379 33.1913 37.6855 33.3137C37.7083 33.3164 37.7299 33.3178 37.7514 33.3178C37.902 33.3178 38.0486 33.2586 38.1561 33.1497C38.2799 33.0259 38.3404 32.8525 38.3189 32.6777C37.6545 27.1036 37.3439 21.4328 37.3977 15.8224C37.4461 10.793 37.7863 5.70985 38.4103 0.716757C38.4291 0.560765 38.3848 0.404773 38.2852 0.283744C38.1857 0.162716 38.0418 0.0874094 37.8858 0.0753065C37.2135 0.0255504 36.5303 0 35.8566 0Z" fill="#303030"/>
<path d="M21.1304 7.86145C20.9408 11.5461 20.8036 15.341 20.7297 19.2395C20.6476 23.5588 20.649 27.7558 20.7189 31.8197" stroke="#303030" stroke-width="0.571523" stroke-linecap="round" stroke-linejoin="round"/>
</g>
<defs>
<linearGradient id="paint0_linear_66_83" x1="49.7475" y1="-0.309392" x2="7.97702" y2="48.7981" gradientUnits="userSpaceOnUse">
<stop offset="0.0629972" stop-color="#D6348F"/>
<stop offset="0.250048" stop-color="#D83D83"/>
<stop offset="0.569844" stop-color="#E6695B"/>
<stop offset="0.838353" stop-color="#F1BF71"/>
</linearGradient>
<clipPath id="clip0_66_83">
<rect width="41.9215" height="40.3387" fill="white"/>
</clipPath>
</defs>
</svg>
