<svg width="27" height="36" viewBox="0 0 27 36" fill="none" xmlns="http://www.w3.org/2000/svg">
<g clip-path="url(#clip0_66_95)">
<path d="M2.89307 34.9006C2.48878 34.9006 2.12553 34.6554 1.97342 34.2811C1.86434 34.0129 -0.647425 27.6725 2.83603 23.5596C4.34609 21.7763 6.54063 20.8306 7.64641 20.6305C9.60179 20.2763 11.6002 20.0831 13.5866 20.0561C13.7527 20.0541 13.9178 20.0531 14.0819 20.0531C15.9503 20.0531 17.8336 20.2002 19.6799 20.4894C19.7219 20.4964 19.7629 20.5054 19.804 20.5174C21.256 20.9397 22.5409 21.6983 23.5206 22.711C25.1097 24.3531 25.9453 26.6107 26.0043 29.4227C26.0093 29.6799 26.0053 29.884 26.0013 30.0341C25.9623 31.4191 25.6671 32.7831 25.1257 34.089C24.9736 34.4562 24.6164 34.6974 24.2181 34.7014C24.2181 34.7014 2.89707 34.9016 2.89407 34.9016L2.89307 34.9006Z" fill="#F4F4F4"/>
<path d="M19.5695 21.2746L19.5818 21.2782C21.3873 21.8042 22.4538 22.7479 22.9509 23.2615C25.1243 25.507 25.1936 28.5749 25.2117 29.4387M19.5695 21.2746L25.0117 29.4429M19.5695 21.2746L19.5568 21.2727C18.002 21.0291 16.1582 20.8459 14.082 20.8459C13.9221 20.8459 13.7611 20.8469 13.5982 20.849L13.598 20.849C11.3828 20.8792 9.42438 21.1147 7.78803 21.4105L7.78789 21.4106C6.86082 21.5788 4.84675 22.4119 3.44101 24.0719M19.5695 21.2746L7.82361 21.6073M25.2117 29.4387L25.0117 29.4429M25.2117 29.4387C25.2117 29.4387 25.2117 29.4387 25.2117 29.4387L25.0117 29.4429M25.2117 29.4387C25.2165 29.6676 25.2122 29.8541 25.2092 29.986L25.2087 30.0098L25.2086 30.011C25.1617 31.6538 24.7332 32.9633 24.3929 33.7844L24.3423 33.9066L24.21 33.9078C20.6588 33.9414 17.1076 33.9746 13.5563 34.0079L13.5525 34.0079C10 34.0412 6.44752 34.0745 2.89503 34.108L2.75892 34.1093L2.70779 33.9831C2.64313 33.8236 2.04283 32.284 1.84654 30.3219C1.65062 28.3634 1.85385 25.946 3.44101 24.0719M25.0117 29.4429C25.0164 29.6674 25.0122 29.8501 25.0092 29.9818L25.0087 30.0052C24.9627 31.6164 24.5424 32.9013 24.2081 33.7079C20.6557 33.7414 17.1032 33.7747 13.5507 33.8079C9.99817 33.8412 6.44565 33.8745 2.89314 33.908C2.77106 33.6068 0.521474 27.8287 3.59364 24.2012M3.44101 24.0719L3.59364 24.2012M3.44101 24.0719C3.44101 24.0719 3.44101 24.0719 3.44101 24.0719L3.59364 24.2012M3.59364 24.2012C4.9656 22.581 6.93599 21.7685 7.82361 21.6073M7.82361 21.6073C9.45076 21.3131 11.3981 21.079 13.6007 21.0489L7.82361 21.6073ZM7.50505 19.8508L7.50495 19.8508C6.05511 20.113 3.77238 21.2267 2.23123 23.0475L2.23117 23.0475C0.654659 24.9086 -0.0319383 27.4726 0.269162 30.4797L0.269165 30.4797C0.489596 32.684 1.1643 34.396 1.23817 34.5783L7.50505 19.8508ZM7.50505 19.8508C9.50248 19.4885 11.5448 19.2914 13.5752 19.2635L7.50505 19.8508ZM24.2253 35.4933L24.2254 35.4933C24.9406 35.487 25.5832 35.0533 25.8577 34.3917C26.437 32.9958 26.7519 31.5368 26.7942 30.0556C26.7981 29.9088 26.803 29.6824 26.7971 29.4051L26.7971 29.405C26.7872 28.9264 26.7634 27.816 26.4269 26.4806L26.4269 26.4805C25.9953 24.7651 25.2077 23.3131 24.0895 22.1588L24.0895 22.1588C23.0154 21.0495 21.6103 20.2172 20.0244 19.7559L20.0234 19.7557C19.9518 19.7345 19.8775 19.7183 19.8021 19.7065L19.8021 19.7064C17.916 19.4108 15.991 19.2605 14.082 19.2605L24.2253 35.4933ZM24.2253 35.4933L2.91216 35.6934H2.91212H2.91207H2.91203H2.91199H2.91195H2.91191H2.91187H2.91183H2.91179H2.91175H2.91171H2.91167H2.91163H2.91158H2.91154H2.9115H2.91146H2.91142H2.91138H2.91134H2.9113H2.91126H2.91122H2.91118H2.91114H2.9111H2.91106H2.91102H2.91098H2.91094H2.9109H2.91085H2.91081H2.91077H2.91073H2.91069H2.91065H2.91061H2.91057H2.91053H2.91049H2.91045H2.91041H2.91037H2.91033H2.91029H2.91025H2.91021H2.91017H2.91013H2.91009H2.91005H2.91001H2.90997H2.90993H2.90989H2.90985H2.90981H2.90977H2.90973H2.90969H2.90965H2.90961H2.90957H2.90954H2.9095H2.90946H2.90942H2.90938H2.90934H2.9093H2.90926H2.90922H2.90918H2.90914H2.9091H2.90906H2.90902H2.90898H2.90894H2.9089H2.90886H2.90882H2.90879H2.90875H2.90871H2.90867H2.90863H2.90859H2.90855H2.90851H2.90847H2.90843H2.90839H2.90835H2.90832H2.90828H2.90824H2.9082H2.90816H2.90812H2.90808H2.90804H2.908H2.90796H2.90793H2.90789H2.90785H2.90781H2.90777H2.90773H2.90769H2.90765H2.90762H2.90758H2.90754H2.9075H2.90746H2.90742H2.90738H2.90734H2.90731H2.90727H2.90723H2.90719H2.90715H2.90711H2.90708H2.90704H2.907H2.90696H2.90692H2.90688H2.90684H2.90681H2.90677H2.90673H2.90669H2.90665H2.90661H2.90658H2.90654H2.9065H2.90646H2.90642H2.90639H2.90635H2.90631H2.90627H2.90623H2.90619H2.90616H2.90612H2.90608H2.90604H2.906H2.90597H2.90593H2.90589H2.90585H2.90581H2.90578H2.90574H2.9057H2.90566H2.90562H2.90559H2.90555H2.90551H2.90547H2.90544H2.9054H2.90536H2.90532H2.90528H2.90525H2.90521H2.90517H2.90513H2.9051H2.90506H2.90502H2.90498H2.90495H2.90491H2.90487H2.90483H2.9048H2.90476H2.90472H2.90468H2.90465H2.90461H2.90457H2.90453H2.9045H2.90446H2.90442H2.90438H2.90435H2.90431H2.90427H2.90423H2.9042H2.90416H2.90412H2.90409H2.90405H2.90401H2.90397H2.90394H2.9039H2.90386H2.90382H2.90379H2.90375H2.90371H2.90368H2.90364H2.9036H2.90356H2.90353H2.90349H2.90345H2.90342H2.90338H2.90334H2.90331H2.90327H2.90323H2.90319H2.90316H2.90312H2.90308H2.90305H2.90301H2.90297H2.90294H2.9029H2.90286H2.90283H2.90279H2.90275H2.90272H2.90268H2.90264H2.90261H2.90257H2.90253H2.90249H2.90246H2.90242H2.90238H2.90235H2.90231H2.90227H2.90224H2.9022H2.90216H2.90213H2.90209H2.90206H2.90202H2.90198H2.90195H2.90191H2.90187H2.90184H2.9018H2.90176H2.90173H2.90169H2.90165H2.90162H2.90158H2.90154H2.90151H2.90147H2.90143H2.9014H2.90136H2.90133H2.90129H2.90125H2.90122H2.90118H2.90114H2.90111H2.90107H2.90104H2.901H2.90096H2.90093H2.90089H2.90085H2.90082H2.90078H2.90075H2.90071H2.90067H2.90064H2.9006H2.90056H2.90053H2.90049H2.90046H2.90042H2.90038H2.90035H2.90031H2.90028H2.90024H2.9002H2.90017H2.90013H2.90009H2.90006H2.90002H2.89999H2.89995H2.89991H2.89988H2.89984H2.89981H2.89977H2.89973H2.8997H2.89966H2.89963H2.89959H2.89956H2.89952H2.89948H2.89945H2.89941H2.89938H2.89934H2.8993H2.89927H2.89923H2.8992H2.89916H2.89912H2.89909H2.89905H2.89902H2.89898H2.89895H2.89891H2.89887H2.89884H2.8988H2.89877H2.89873H2.8987H2.89866H2.89862H2.89859H2.89855H2.89852H2.89848H2.89845H2.89841H2.89837H2.89834H2.8983H2.89827H2.89823H2.8982H2.89816H2.89812H2.89809H2.89805H2.89802H2.89798H2.89795H2.89791H2.89788H2.89784H2.8978H2.89777H2.89773H2.8977H2.89766H2.89763H2.89759H2.89756H2.89752H2.89748H2.89745H2.89741H2.89738H2.89734H2.89731H2.89727H2.89724H2.8972H2.89717H2.89713H2.89709H2.89706H2.89702H2.89699H2.89695H2.89692H2.89688H2.89685H2.89681H2.89678H2.89674H2.8967H2.89667H2.89663H2.8966H2.89656H2.89653H2.89649H2.89646H2.89642H2.89639H2.89635H2.89632H2.89628H2.89624H2.89621H2.89617H2.89614H2.8961H2.89607H2.89603H2.896H2.89596H2.89593H2.89589H2.89586H2.89582H2.89579H2.89575H2.89571H2.89568H2.89564H2.89561H2.89557H2.89554H2.8955H2.89547H2.89543H2.8954H2.89536H2.89533H2.89529H2.89526H2.89522H2.89519H2.89515H2.89511H2.89508H2.89504H2.89501H2.89497H2.89494H2.8949H2.89487H2.89483H2.8948H2.89476H2.89473H2.89469H2.89466H2.89462H2.89459H2.89455H2.89452H2.89448H2.89445H2.89441H2.89438H2.89434H2.8943H2.89427H2.89423H2.8942H2.89416H2.89413H2.89409H2.89406H2.89402H2.89399H2.89395H2.89392H2.89388H2.89385H2.89381H2.89378H2.89374H2.89371H2.89367H2.89364H2.8936H2.89357H2.89353H2.8935H2.89346H2.89342H2.89339H2.89335H2.89332H2.89328H2.89325H2.89321H2.89318H2.89314C2.16612 35.6934 1.51186 35.2525 1.23821 34.5784L24.2253 35.4933Z" fill="#F4F4F4" stroke="#303030" stroke-width="0.4"/>
<path d="M18.673 3.41805C21.64 6.38505 21.64 11.1955 18.673 14.1625C15.706 17.1295 10.8955 17.1295 7.92852 14.1625C4.96151 11.1955 4.96151 6.38505 7.92852 3.41805C10.8955 0.451045 15.706 0.451044 18.673 3.41805Z" fill="#F4F4F4" stroke="#303030" stroke-width="0.4"/>
</g>
<defs>
<clipPath id="clip0_66_95">
<rect width="27" height="35.8943" fill="white"/>
</clipPath>
</defs>
</svg>
