<svg width="23" height="23" viewBox="0 0 23 23" fill="none" xmlns="http://www.w3.org/2000/svg">
<g clip-path="url(#clip0_66_499)">
<path d="M22.5501 11.58C22.5501 21.49 10.4801 26.67 3.38008 19.63C-2.41992 14.13 -0.459925 3.84 7.00008 0.88C14.4101 -2.31 22.7601 3.63 22.5501 11.58ZM22.4501 11.58C22.4001 2.16 10.5301 -2.47 3.96008 4.11C-0.209925 8.01 -0.259925 15.17 3.84008 19.17C10.5201 26.01 22.5101 21.22 22.4501 11.58Z" fill="#1D3B5F"/>
<path d="M8.42992 8.97C8.45992 7.69 9.78992 6.47 11.1899 6.59C13.2099 6.82 14.7699 9.02 13.9399 10.96C13.7099 11.62 13.0899 12.25 12.4199 12.44C11.7299 12.64 11.4299 12.66 11.1399 13.05C10.8699 13.42 10.7599 14.01 10.7399 14.61C10.7399 14.66 10.6599 14.68 10.6399 14.63C10.3599 14.09 10.1699 13.41 10.4399 12.69C10.6199 12.01 11.4999 11.59 12.0599 11.43C12.9299 11.18 13.4399 10.12 13.4899 9.05C13.5699 7.8 12.2799 7.16 11.1899 7.41C10.1699 7.5 9.24992 8 8.51992 8.99C8.48992 9.03 8.41992 9.01 8.42992 8.96V8.97Z" fill="#1D3B5F"/>
<path d="M10.8201 17.56C11.2122 17.56 11.5301 17.2421 11.5301 16.85C11.5301 16.4579 11.2122 16.14 10.8201 16.14C10.428 16.14 10.1101 16.4579 10.1101 16.85C10.1101 17.2421 10.428 17.56 10.8201 17.56Z" fill="#1D3B5F"/>
</g>
<defs>
<clipPath id="clip0_66_499">
<rect width="22.55" height="22.88" fill="white"/>
</clipPath>
</defs>
</svg>
